<svg version="1.1" xmlns="http://www.w3.org/2000/svg" xmlns:xlink="http://www.w3.org/1999/xlink" x="0px" y="0px" width="262px"
	 height="118px" viewBox="0 0 262 118" enable-background="new 0 0 262 118" xml:space="preserve">
	
	  <g>
		<g id="Hintergrund">
			<rect x="2.133" y="6.884" fill="#95C11F" width="103.299" height="103.299"/>
		</g>
		<g id="Muster">
			<g>
				<path fill="#80A51B" d="M-0.001,40.085c1.479,6.574,2.957,13.148,4.437,19.725c2.162,9.607,4.324,19.214,6.485,28.824
					c0.29,1.294,0.584,2.588,0.875,3.885c-0.004-0.013,1.955-0.481,1.947-0.523c-1.48-6.574-2.961-13.147-4.439-19.724
					c-2.16-9.607-4.322-19.214-6.484-28.824c-0.292-1.294-0.583-2.588-0.874-3.882C1.948,39.575-0.012,40.043-0.001,40.085"/>
				<path fill="#80A51B" d="M16.296,26.277c0.151,5.383,0.304,10.764,0.458,16.147c0.308,10.746,0.611,21.495,0.918,32.241
					c0.229,8.013,0.456,16.028,0.684,24.042c0.02,0.665,0.038,1.33,0.056,1.993c-0.005-0.233,3.254-0.585,3.246-0.867
					c-0.153-5.384-0.307-10.767-0.459-16.148c-0.307-10.746-0.611-21.492-0.918-32.241c-0.229-8.016-0.456-16.028-0.684-24.042
					c-0.02-0.665-0.037-1.33-0.057-1.995C19.546,25.643,16.288,25.995,16.296,26.277"/>
				<path fill="#80A51B" d="M36.91,12.472c-0.343,4.369-0.688,8.738-1.03,13.106c-0.777,9.918-1.554,19.833-2.333,29.754
					c-0.837,10.684-1.675,21.365-2.512,32.049c-0.524,6.665-1.047,13.332-1.57,19.996c-0.04,0.502-0.08,1.004-0.117,1.509
					c0.009-0.098,2.134-0.549,2.278-0.587c0.158-0.042,2.254-0.479,2.264-0.632c0.345-4.369,0.688-8.737,1.029-13.106
					c0.778-9.917,1.555-19.835,2.334-29.753c0.838-10.684,1.675-21.368,2.512-32.049c0.524-6.667,1.049-13.332,1.57-19.996
					c0.04-0.502,0.08-1.007,0.119-1.509c-0.01,0.096-2.135,0.546-2.279,0.585C39.016,11.882,36.921,12.319,36.91,12.472"/>
				<path fill="#80A51B" d="M57.522,1.526c-0.525,3.541-1.055,7.082-1.584,10.62c-1.282,8.603-2.566,17.206-3.85,25.806
					c-1.587,10.638-3.175,21.275-4.764,31.912c-1.438,9.646-2.878,19.292-4.317,28.938c-0.841,5.626-1.681,11.256-2.521,16.885
					c-0.067,0.46-0.138,0.921-0.205,1.382c0.023-0.155,2.726-0.683,2.929-0.735c0.688-0.181,1.376-0.362,2.062-0.548
					c-0.04,0.01,0.844-0.197,0.85-0.246c0.529-3.538,1.059-7.079,1.585-10.619c1.285-8.601,2.567-17.204,3.853-25.804
					c1.587-10.637,3.173-21.275,4.761-31.912c1.439-9.649,2.878-19.292,4.318-28.938c0.84-5.629,1.679-11.256,2.519-16.885
					c0.071-0.46,0.14-0.921,0.208-1.382c-0.023,0.155-2.727,0.681-2.93,0.735c-0.688,0.179-1.377,0.36-2.062,0.549
					C58.413,1.273,57.531,1.478,57.522,1.526"/>
				<path fill="#80A51B" d="M68.077,8.683c-0.226,4.123-0.45,8.246-0.677,12.369c-0.525,9.602-1.051,19.207-1.575,28.812
					c-0.6,10.94-1.197,21.88-1.795,32.82c-0.445,8.132-0.892,16.264-1.336,24.398c-0.1,1.814-0.197,3.631-0.299,5.451
					c0.006-0.088,2.141-0.548,2.28-0.584c0.153-0.042,2.257-0.489,2.265-0.632c0.226-4.123,0.452-8.246,0.676-12.369
					c0.525-9.605,1.052-19.207,1.576-28.812c0.598-10.94,1.198-21.88,1.796-32.82c0.442-8.135,0.89-16.267,1.333-24.399
					c0.1-1.817,0.199-3.634,0.299-5.451c-0.004,0.088-2.138,0.549-2.277,0.585C70.188,8.093,68.085,8.541,68.077,8.683"/>
				<path fill="#80A51B" d="M78.63,18.704c0.307,4.661,0.613,9.323,0.922,13.984c0.673,10.249,1.349,20.499,2.023,30.745
					c0.675,10.236,1.35,20.47,2.022,30.706c0.306,4.62,0.611,9.237,0.914,13.857c-0.011-0.192,3.263-0.626,3.245-0.87
					c-0.305-4.659-0.615-9.323-0.922-13.984c-0.675-10.25-1.351-20.496-2.025-30.745c-0.673-10.236-1.349-20.47-2.021-30.706
					c-0.305-4.62-0.608-9.237-0.914-13.857C81.889,18.029,78.613,18.463,78.63,18.704"/>
				<path fill="#80A51B" d="M89.182,28.726c1.193,5.117,2.391,10.233,3.585,15.353c2.431,10.415,4.86,20.83,7.291,31.242
					c1.939,8.305,3.878,16.608,5.815,24.911c0.252,1.077,0.502,2.151,0.755,3.228c-0.002-0.005,1.956-0.487,1.946-0.521
					c-1.193-5.117-2.39-10.236-3.584-15.353c-2.43-10.415-4.861-20.83-7.292-31.244c-1.938-8.303-3.877-16.603-5.814-24.909
					c-0.252-1.077-0.505-2.15-0.754-3.227C91.132,28.21,89.173,28.689,89.182,28.726"/>
			</g>
		</g>
		<g id="Text">
			<g>
				<path fill="#4A4A49" d="M128.67,53.202l3.98,10.218h-1.196l-0.933-2.348h-4.986l-0.904,2.348h-1.21l3.995-10.218H128.67z
					 M128.027,54.63l-2.055,5.378h4.14L128.027,54.63z"/>
				<path fill="#4A4A49" d="M141.629,63.42l-5.803-8.28v8.28h-1.108V53.202h1.138l5.803,8.308v-8.308h1.122V63.42H141.629z"/>
				<path fill="#4A4A49" d="M144.906,53.202h7.553v1.048h-3.267v9.17h-1.107v-9.17h-3.179V53.202z"/>
				<path fill="#4A4A49" d="M155.067,54.586c0.978-1.035,2.172-1.545,3.616-1.545c1.442,0,2.667,0.51,3.644,1.545
					c0.991,1.02,1.487,2.26,1.487,3.717c0,1.473-0.496,2.725-1.473,3.748c-0.976,1.02-2.201,1.53-3.658,1.53
					c-1.444,0-2.654-0.51-3.63-1.53c-0.963-1.022-1.444-2.275-1.444-3.748C153.609,56.846,154.091,55.606,155.067,54.586z
					 M155.84,61.336c0.743,0.802,1.721,1.208,2.901,1.208c1.166,0,2.113-0.406,2.857-1.208c0.743-0.802,1.122-1.822,1.122-3.033
					c0-1.196-0.379-2.2-1.122-3.002c-0.744-0.818-1.691-1.224-2.857-1.224c-1.181,0-2.143,0.406-2.901,1.224
					c-0.744,0.802-1.123,1.807-1.123,3.002C154.717,59.514,155.096,60.534,155.84,61.336z"/>
				<path fill="#4A4A49" d="M173.027,63.42l-5.803-8.28v8.28h-1.108V53.202h1.138l5.803,8.308v-8.308h1.122V63.42H173.027z"/>
				<path fill="#4A4A49" d="M181.945,63.42V53.202h3.748c2.172,0,3.527,0.903,3.527,2.71c0,0.89-0.51,1.781-1.326,2.187
					c0.976,0.453,1.574,1.385,1.574,2.42c0,0.89-0.321,1.604-0.962,2.13c-0.642,0.51-1.487,0.771-2.552,0.771H181.945z M183.054,54.25
					v3.442h2.857c1.283,0,2.187-0.598,2.187-1.75c0-1.152-0.903-1.693-2.201-1.693H183.054z M183.054,62.372h3.033
					c1.354,0,2.26-0.642,2.26-1.881c0-1.152-0.919-1.75-2.201-1.75h-3.092V62.372z"/>
				<path fill="#4A4A49" d="M198.243,63.42l-2.667-3.761h-2.436v3.761h-1.107V53.202h3.558c1.138,0,2.04,0.29,2.711,0.888
					c0.686,0.585,1.021,1.372,1.021,2.348c0,1.574-0.918,2.697-2.478,3.09l2.727,3.893H198.243z M193.141,54.25v4.374h2.61
					c1.517,0,2.464-0.743,2.464-2.187c0-1.4-0.947-2.187-2.464-2.187H193.141z"/>
				<path fill="#4A4A49" d="M208.272,53.202h1.122v6.209c0,1.225-0.35,2.231-1.034,3.005c-0.686,0.771-1.633,1.165-2.843,1.165
					s-2.158-0.394-2.843-1.165c-0.687-0.773-1.036-1.78-1.036-3.005v-6.209h1.124v6.225c0,0.903,0.232,1.646,0.714,2.244
					c0.48,0.585,1.166,0.875,2.041,0.875s1.545-0.29,2.026-0.888c0.48-0.598,0.729-1.343,0.729-2.247V53.202z"/>
				<path fill="#4A4A49" d="M220.574,61.831c-0.947,1.095-2.376,1.75-3.907,1.75c-1.473,0-2.696-0.51-3.674-1.53
					c-0.977-1.022-1.458-2.259-1.458-3.719c0-1.473,0.481-2.71,1.444-3.745c0.976-1.035,2.171-1.545,3.614-1.545
					c1.604,0,2.873,0.582,3.82,1.75l-0.744,0.787c-0.772-1.007-1.809-1.501-3.076-1.501c-1.122,0-2.069,0.406-2.828,1.224
					c-0.744,0.815-1.123,1.822-1.123,3.031c0,1.183,0.379,2.187,1.138,3.005c0.772,0.802,1.735,1.208,2.887,1.208
					c1.341,0,2.406-0.51,3.192-1.529L220.574,61.831z"/>
				<path fill="#4A4A49" d="M222.395,63.42V53.202h1.124v5.904l4.767-5.904h1.297l-3.527,4.403l3.762,5.815h-1.342l-3.192-4.884
					l-1.764,2.187v2.697H222.395z"/>
				<path fill="#4A4A49" d="M238.868,63.42l-5.802-8.28v8.28h-1.108V53.202h1.138l5.803,8.308v-8.308h1.122V63.42H238.868z"/>
				<path fill="#4A4A49" d="M242.979,63.42V53.202h6.691v1.048h-5.584v3.442h5.424v1.048h-5.424v3.631h5.584v1.048H242.979z"/>
				<path fill="#4A4A49" d="M258.779,63.42l-2.667-3.761h-2.436v3.761h-1.107V53.202h3.558c1.137,0,2.04,0.29,2.711,0.888
					c0.686,0.585,1.021,1.372,1.021,2.348c0,1.574-0.919,2.697-2.478,3.09l2.727,3.893H258.779z M253.677,54.25v4.374h2.61
					c1.517,0,2.464-0.743,2.464-2.187c0-1.4-0.947-2.187-2.464-2.187H253.677z"/>
				<path fill="#4A4A49" d="M125.287,78.325v3.763h-1.107V71.868h3.557c1.138,0,2.041,0.292,2.711,0.89
					c0.687,0.583,1.021,1.369,1.021,2.348c0,0.976-0.335,1.763-1.006,2.348c-0.67,0.582-1.574,0.872-2.727,0.872H125.287z
					 M125.287,72.918v4.374h2.61c1.517,0,2.464-0.746,2.464-2.187c0-1.4-0.947-2.187-2.464-2.187H125.287z"/>
				<path fill="#4A4A49" d="M139.558,82.088l-2.667-3.763h-2.436v3.763h-1.107V71.868h3.558c1.138,0,2.041,0.292,2.711,0.89
					c0.686,0.583,1.021,1.369,1.021,2.348c0,1.574-0.919,2.697-2.479,3.09l2.727,3.893H139.558z M134.455,72.918v4.374h2.61
					c1.517,0,2.464-0.746,2.464-2.187c0-1.4-0.947-2.187-2.464-2.187H134.455z"/>
				<path fill="#4A4A49" d="M143.1,82.088V71.868h1.108v10.221H143.1z"/>
				<path fill="#4A4A49" d="M150.199,80.748l3.104-8.88h1.166l-3.658,10.221h-1.254l-3.674-10.221h1.166L150.199,80.748z"/>
				<path fill="#4A4A49" d="M159.396,71.868l3.98,10.221h-1.195l-0.934-2.348h-4.986l-0.904,2.348h-1.21l3.995-10.221H159.396z
					 M158.755,73.296l-2.056,5.381h4.14L158.755,73.296z"/>
				<path fill="#4A4A49" d="M163.126,71.868h7.552v1.051h-3.266v9.17h-1.107v-9.17h-3.179V71.868z"/>
				<path fill="#4A4A49" d="M179.09,71.868h1.122v6.211c0,1.225-0.35,2.231-1.034,3.002c-0.686,0.774-1.633,1.167-2.843,1.167
					s-2.159-0.394-2.844-1.167c-0.686-0.771-1.035-1.778-1.035-3.002v-6.211h1.123v6.225c0,0.906,0.233,1.648,0.715,2.247
					c0.48,0.582,1.166,0.875,2.041,0.875c0.874,0,1.545-0.292,2.026-0.89c0.479-0.598,0.729-1.341,0.729-2.244V71.868z"/>
				<path fill="#4A4A49" d="M189.569,82.088l-5.803-8.282v8.282h-1.107V71.868h1.137l5.803,8.311v-8.311h1.122v10.221H189.569z"/>
				<path fill="#4A4A49" d="M193.489,82.088V71.868h1.107v10.221H193.489z"/>
				<path fill="#4A4A49" d="M200.59,80.748l3.104-8.88h1.166l-3.658,10.221h-1.255l-3.674-10.221h1.166L200.59,80.748z"/>
				<path fill="#4A4A49" d="M206.534,82.088V71.868h6.692v1.051h-5.584v3.439h5.423v1.051h-5.423v3.628h5.584v1.051H206.534z"/>
				<path fill="#4A4A49" d="M222.146,82.088l-2.667-3.763h-2.436v3.763h-1.107V71.868h3.557c1.138,0,2.041,0.292,2.712,0.89
					c0.686,0.583,1.021,1.369,1.021,2.348c0,1.574-0.919,2.697-2.479,3.09l2.728,3.893H222.146z M217.044,72.918v4.374h2.61
					c1.517,0,2.464-0.746,2.464-2.187c0-1.4-0.947-2.187-2.464-2.187H217.044z"/>
				<path fill="#4A4A49" d="M228.326,77.334c-0.831-0.145-1.531-0.45-2.069-0.917c-0.54-0.468-0.817-1.095-0.817-1.881
					c0-0.859,0.35-1.545,1.05-2.055s1.531-0.774,2.479-0.774c1.385,0,2.566,0.525,3.514,1.561l-0.744,0.815
					c-0.743-0.888-1.69-1.34-2.857-1.34c-1.341,0-2.332,0.714-2.332,1.75c0,0.963,0.729,1.561,2.171,1.793l1.007,0.173
					c1.969,0.308,3.104,1.299,3.104,2.917c0,0.831-0.335,1.517-1.02,2.055c-0.686,0.541-1.589,0.818-2.712,0.818
					c-1.676,0-3.104-0.758-3.907-1.866l0.759-0.787c0.786,1.077,1.88,1.617,3.28,1.617c1.442,0,2.492-0.67,2.492-1.822
					c0-0.979-0.714-1.589-2.143-1.838L228.326,77.334z"/>
				<path fill="#4A4A49" d="M235.118,82.088V71.868h1.108v10.221H235.118z"/>
				<path fill="#4A4A49" d="M238.179,71.868h7.553v1.051h-3.267v9.17h-1.107v-9.17h-3.179V71.868z"/>
				<path fill="#4A4A49" d="M250.876,71.868l3.981,10.221h-1.196l-0.933-2.348h-4.986l-0.904,2.348h-1.21l3.994-10.221H250.876z
					 M248.384,69.593c0.291-0.29,0.787-0.29,1.078,0c0.292,0.292,0.292,0.79,0,1.079c-0.291,0.277-0.787,0.277-1.078,0
					C248.107,70.382,248.107,69.885,248.384,69.593z M250.234,73.296l-2.055,5.381h4.14L250.234,73.296z M251.022,69.593
					c0.291-0.29,0.787-0.29,1.078,0c0.292,0.292,0.292,0.79,0,1.079c-0.291,0.277-0.787,0.277-1.078,0
					C250.746,70.382,250.746,69.885,251.022,69.593z"/>
				<path fill="#4A4A49" d="M254.446,71.868h7.553v1.051h-3.267v9.17h-1.107v-9.17h-3.179V71.868z"/>
				<path fill="#4A4A49" d="M125.142,91.921c0.978-1.035,2.172-1.545,3.616-1.545c1.442,0,2.667,0.51,3.644,1.545
					c0.992,1.02,1.487,2.259,1.487,3.716c0,1.473-0.495,2.726-1.473,3.748c-0.976,1.02-2.201,1.529-3.658,1.529
					c-1.444,0-2.654-0.51-3.63-1.529c-0.963-1.022-1.444-2.275-1.444-3.748C123.684,94.18,124.165,92.94,125.142,91.921z
					 M125.915,98.671c0.742,0.802,1.72,1.208,2.901,1.208c1.165,0,2.112-0.406,2.856-1.208c0.743-0.803,1.122-1.822,1.122-3.034
					c0-1.195-0.379-2.2-1.122-3.002c-0.744-0.818-1.691-1.224-2.856-1.224c-1.182,0-2.144,0.406-2.901,1.224
					c-0.744,0.802-1.124,1.807-1.124,3.002C124.791,96.849,125.171,97.868,125.915,98.671z"/>
				<path fill="#4A4A49" d="M136.264,100.754V90.536h3.747c2.172,0,3.528,0.903,3.528,2.71c0,0.89-0.512,1.78-1.327,2.187
					c0.976,0.453,1.574,1.384,1.574,2.42c0,0.89-0.321,1.604-0.962,2.13c-0.642,0.51-1.486,0.771-2.552,0.771H136.264z
					 M137.371,91.584v3.442h2.858c1.282,0,2.186-0.598,2.186-1.75c0-1.151-0.903-1.692-2.201-1.692H137.371z M137.371,99.706h3.033
					c1.355,0,2.26-0.642,2.26-1.882c0-1.151-0.919-1.75-2.201-1.75h-3.092V99.706z"/>
				<path fill="#4A4A49" d="M146.423,100.754V90.536h6.692v1.048h-5.584v3.442h5.423v1.048h-5.423v3.631h5.584v1.048H146.423z"/>
				<path fill="#4A4A49" d="M162.298,100.754l-2.667-3.761h-2.436v3.761h-1.107V90.536h3.557c1.138,0,2.041,0.29,2.711,0.888
					c0.687,0.585,1.021,1.372,1.021,2.348c0,1.573-0.919,2.697-2.479,3.09l2.727,3.893H162.298z M157.195,91.584v4.374h2.61
					c1.517,0,2.464-0.743,2.464-2.187c0-1.4-0.947-2.187-2.464-2.187H157.195z"/>
				<path fill="#4A4A49" d="M166.815,91.921c0.977-1.035,2.172-1.545,3.615-1.545s2.667,0.51,3.645,1.545
					c0.991,1.02,1.487,2.259,1.487,3.716c0,1.473-0.496,2.726-1.473,3.748c-0.977,1.02-2.202,1.529-3.659,1.529
					c-1.443,0-2.653-0.51-3.63-1.529c-0.963-1.022-1.444-2.275-1.444-3.748C165.356,94.18,165.838,92.94,166.815,91.921z
					 M167.588,98.671c0.743,0.802,1.72,1.208,2.901,1.208c1.166,0,2.113-0.406,2.857-1.208c0.743-0.803,1.122-1.822,1.122-3.034
					c0-1.195-0.379-2.2-1.122-3.002c-0.744-0.818-1.691-1.224-2.857-1.224c-1.182,0-2.143,0.406-2.901,1.224
					c-0.744,0.802-1.123,1.807-1.123,3.002C166.465,96.849,166.844,97.868,167.588,98.671z M168.565,88.333
					c0.291-0.292,0.786-0.292,1.077,0c0.293,0.292,0.293,0.787,0,1.08c-0.291,0.277-0.786,0.277-1.077,0
					C168.288,89.121,168.288,88.626,168.565,88.333z M171.203,88.333c0.292-0.292,0.787-0.292,1.078,0c0.293,0.292,0.293,0.787,0,1.08
					c-0.291,0.277-0.786,0.277-1.078,0C170.927,89.121,170.927,88.626,171.203,88.333z"/>
				<path fill="#4A4A49" d="M180.649,96.002c-0.831-0.145-1.531-0.453-2.069-0.919c-0.54-0.466-0.816-1.092-0.816-1.881
					c0-0.859,0.349-1.545,1.049-2.055s1.531-0.771,2.479-0.771c1.385,0,2.566,0.523,3.514,1.558l-0.744,0.818
					c-0.743-0.89-1.69-1.34-2.857-1.34c-1.341,0-2.332,0.714-2.332,1.75c0,0.96,0.729,1.558,2.172,1.791l1.006,0.176
					c1.969,0.306,3.104,1.297,3.104,2.917c0,0.831-0.335,1.514-1.02,2.055c-0.686,0.538-1.589,0.815-2.712,0.815
					c-1.676,0-3.104-0.758-3.907-1.866l0.759-0.787c0.786,1.079,1.88,1.618,3.28,1.618c1.442,0,2.492-0.67,2.492-1.822
					c0-0.976-0.714-1.589-2.143-1.837L180.649,96.002z"/>
				<path fill="#4A4A49" d="M187.033,90.536h7.552v1.048h-3.267v9.17h-1.107v-9.17h-3.178V90.536z"/>
				<path fill="#4A4A49" d="M196.799,100.754V90.536h6.692v1.048h-5.584v3.442h5.423v1.048h-5.423v3.631h5.584v1.048H196.799z"/>
				<path fill="#4A4A49" d="M212.673,100.754l-2.668-3.761h-2.435v3.761h-1.108V90.536h3.558c1.138,0,2.041,0.29,2.711,0.888
					c0.687,0.585,1.021,1.372,1.021,2.348c0,1.573-0.919,2.697-2.479,3.09l2.727,3.893H212.673z M207.57,91.584v4.374h2.609
					c1.517,0,2.464-0.743,2.464-2.187c0-1.4-0.947-2.187-2.464-2.187H207.57z"/>
				<path fill="#4A4A49" d="M222.687,100.754l-2.668-3.761h-2.435v3.761h-1.108V90.536h3.558c1.138,0,2.041,0.29,2.711,0.888
					c0.686,0.585,1.021,1.372,1.021,2.348c0,1.573-0.919,2.697-2.479,3.09l2.727,3.893H222.687z M217.584,91.584v4.374h2.609
					c1.517,0,2.464-0.743,2.464-2.187c0-1.4-0.947-2.187-2.464-2.187H217.584z"/>
				<path fill="#4A4A49" d="M226.489,100.754V90.536h6.691v1.048h-5.584v3.442h5.424v1.048h-5.424v3.631h5.584v1.048H226.489z"/>
				<path fill="#4A4A49" d="M236.153,100.754V90.536h1.108v10.218H236.153z"/>
				<path fill="#4A4A49" d="M248.69,99.165c-0.947,1.095-2.376,1.75-3.906,1.75c-1.473,0-2.697-0.51-3.674-1.529
					c-0.978-1.022-1.459-2.26-1.459-3.719c0-1.473,0.481-2.71,1.444-3.745c0.976-1.035,2.172-1.545,3.614-1.545
					c1.604,0,2.873,0.583,3.82,1.75l-0.744,0.787c-0.772-1.007-1.807-1.501-3.076-1.501c-1.122,0-2.069,0.406-2.827,1.224
					c-0.744,0.815-1.124,1.822-1.124,3.031c0,1.183,0.38,2.187,1.138,3.005c0.772,0.802,1.735,1.208,2.888,1.208
					c1.341,0,2.405-0.51,3.192-1.53L248.69,99.165z"/>
				<path fill="#4A4A49" d="M257.568,100.754v-4.68h-5.556v4.68h-1.107V90.536h1.107v4.49h5.556v-4.49h1.107v10.218H257.568z"/>
			</g>
			<g>
				<path fill="#FFFFFF" d="M10.776,52.123h8.959v1.789H16.19v9.819h-1.97v-9.819h-3.444V52.123z"/>
				<path fill="#FFFFFF" d="M20.715,63.249c-0.514-0.445-0.779-1.059-0.779-1.804c0-1.773,1.392-2.715,3.378-2.715
					c0.53,0,1.076,0.099,1.641,0.28v-0.546c0-0.81-0.68-1.34-1.591-1.34c-0.845,0-1.489,0.396-1.921,1.175l-1.273-1.193
					c0.611-1.108,1.887-1.688,3.212-1.688c2.103,0,3.46,1.059,3.46,3.064v5.249h-1.854v-0.629c-0.612,0.546-1.391,0.81-2.317,0.81
					C21.89,63.912,21.244,63.697,20.715,63.249z M23.049,62.255c0.779,0,1.424-0.23,1.905-0.694v-0.929
					c-0.58-0.215-1.144-0.331-1.69-0.331c-0.877,0-1.439,0.365-1.439,1.012C21.824,61.859,22.255,62.255,23.049,62.255z"/>
				<path fill="#FFFFFF" d="M30.834,63.73h-1.887v-8.114h1.854v0.663c0.515-0.58,1.209-0.862,2.104-0.862
					c2.003,0,3.212,1.325,3.212,3.592v4.721H34.23V59.01c0-1.142-0.597-1.887-1.607-1.887c-1.143,0-1.789,0.81-1.789,2.12V63.73z"/>
				<path fill="#FFFFFF" d="M38.19,55.617h6.176v1.604l-3.958,4.804h4.156v1.706h-6.457v-1.607l3.924-4.819H38.19V55.617z"/>
				<path fill="#FFFFFF" d="M16.19,79.715l-2.682-5.083v7.65h-1.972V70.674h2.07l3.494,6.856l3.494-6.856h2.07v11.608h-1.97v-7.65
					l-2.684,5.083H16.19z"/>
				<path fill="#FFFFFF" d="M26.827,74.168v4.85c0,1.077,0.546,1.758,1.522,1.758c1.06,0,1.69-0.829,1.69-2.037v-4.571h1.887v8.114
					h-1.854V81.62c-0.514,0.562-1.226,0.844-2.103,0.844c-1.838,0-3.031-1.325-3.031-3.577v-4.718H26.827z"/>
				<path fill="#FFFFFF" d="M36.451,78.954c-1.642-0.38-2.47-1.227-2.47-2.567c0-1.473,1.227-2.417,2.965-2.417
					c1.177,0,2.186,0.448,3.063,1.359l-1.209,1.292c-0.497-0.681-1.126-1.027-1.903-1.027c-0.68,0-1.109,0.347-1.109,0.761
					c0,0.38,0.264,0.629,0.795,0.764l1.274,0.297c1.655,0.38,2.483,1.224,2.483,2.534c0,1.473-1.159,2.516-3.212,2.516
					c-1.408,0-2.534-0.528-3.362-1.574l1.193-1.224c0.596,0.779,1.374,1.175,2.317,1.175c0.879,0,1.242-0.365,1.242-0.828
					c0-0.347-0.248-0.595-0.993-0.794L36.451,78.954z"/>
				<path fill="#FFFFFF" d="M42.181,70.871c0.465-0.463,1.228-0.463,1.69,0c0.463,0.448,0.463,1.209,0,1.675
					c-0.463,0.463-1.226,0.463-1.69,0C41.718,72.08,41.718,71.319,42.181,70.871z M42.065,82.282v-8.114h1.889v8.114H42.065z"/>
				<path fill="#FFFFFF" d="M46.455,82.282V70.674h1.889v6.639l2.814-3.145h2.352l-3.163,3.51l3.312,4.604h-2.153l-2.417-3.294
					l-0.745,0.844v2.451H46.455z"/>
				<path fill="#FFFFFF" d="M14.917,95.8c-2.202-0.398-3.479-1.573-3.479-3.445c0-0.994,0.397-1.788,1.193-2.402
					c0.795-0.613,1.755-0.911,2.897-0.911c1.688,0,3.112,0.613,4.289,1.855l-1.375,1.457c-0.845-1.009-1.839-1.524-2.997-1.524
					c-1.325,0-2.02,0.681-2.02,1.476c0,0.844,0.645,1.374,1.92,1.573l1.16,0.197c2.5,0.398,3.708,1.675,3.708,3.577
					c0,0.994-0.396,1.806-1.191,2.435c-0.796,0.614-1.871,0.927-3.247,0.927c-1.903,0-3.443-0.746-4.62-2.218l1.343-1.358
					c0.845,1.11,1.854,1.788,3.526,1.788c1.407,0,2.202-0.629,2.202-1.54c0-0.877-0.629-1.439-1.903-1.656L14.917,95.8z"/>
				<path fill="#FFFFFF" d="M24.193,96.776c0,1.475,0.943,2.534,2.218,2.534c0.944,0,1.474-0.396,2.086-1.258l1.292,1.208
					c-0.811,1.175-1.954,1.755-3.443,1.755c-1.126,0-2.088-0.396-2.883-1.208c-0.794-0.81-1.191-1.822-1.191-3.031
					c0-1.209,0.397-2.218,1.191-3.031c0.795-0.81,1.757-1.225,2.883-1.225c1.357,0,2.45,0.546,3.296,1.623l-1.31,1.258
					c-0.58-0.779-1.225-1.16-1.937-1.16C25.12,94.242,24.193,95.304,24.193,96.776z"/>
				<path fill="#FFFFFF" d="M33.303,100.834h-1.889V89.227h1.889v4.056c0.547-0.513,1.225-0.761,2.02-0.761
					c1.938,0,3.264,1.341,3.264,3.593v4.721h-1.89v-4.721c0-1.142-0.595-1.887-1.605-1.887c-1.143,0-1.788,0.81-1.788,2.12V100.834z"
					/>
				<path fill="#FFFFFF" d="M41.07,100.353c-0.512-0.445-0.777-1.059-0.777-1.804c0-1.773,1.391-2.715,3.379-2.715
					c0.529,0,1.076,0.099,1.639,0.28v-0.546c0-0.81-0.679-1.34-1.59-1.34c-0.844,0-1.49,0.396-1.92,1.175l-1.276-1.193
					c0.613-1.107,1.889-1.688,3.213-1.688c2.104,0,3.462,1.059,3.462,3.064v5.249h-1.855v-0.629c-0.613,0.546-1.39,0.81-2.319,0.81
					C42.247,101.016,41.602,100.801,41.07,100.353z M43.406,99.359c0.778,0,1.425-0.23,1.904-0.694v-0.929
					c-0.58-0.215-1.142-0.331-1.688-0.331c-0.879,0-1.442,0.365-1.442,1.012C42.181,98.963,42.61,99.359,43.406,99.359z"/>
				<path fill="#FFFFFF" d="M51.043,92.721v4.85c0,1.077,0.546,1.757,1.523,1.757c1.06,0,1.688-0.828,1.688-2.037v-4.57h1.888v8.114
					h-1.854v-0.663c-0.512,0.562-1.226,0.844-2.104,0.844c-1.838,0-3.03-1.325-3.03-3.577v-4.718H51.043z"/>
				<path fill="#FFFFFF" d="M60.666,97.506c-1.639-0.38-2.467-1.227-2.467-2.567c0-1.473,1.224-2.417,2.963-2.417
					c1.176,0,2.188,0.448,3.064,1.359l-1.208,1.292c-0.497-0.681-1.127-1.027-1.905-1.027c-0.68,0-1.11,0.347-1.11,0.761
					c0,0.381,0.266,0.629,0.795,0.764l1.275,0.298c1.657,0.38,2.485,1.224,2.485,2.534c0,1.473-1.16,2.516-3.214,2.516
					c-1.407,0-2.533-0.528-3.361-1.574l1.191-1.224c0.597,0.779,1.374,1.175,2.319,1.175c0.877,0,1.242-0.365,1.242-0.829
					c0-0.347-0.249-0.595-0.994-0.794L60.666,97.506z"/>
				<path fill="#FFFFFF" d="M68.17,100.239v3.807h-1.888V92.721h1.854v0.727c0.579-0.613,1.357-0.927,2.302-0.927
					c1.159,0,2.103,0.396,2.849,1.209c0.745,0.81,1.108,1.822,1.108,3.046c0,1.227-0.363,2.236-1.108,3.049
					c-0.746,0.794-1.689,1.19-2.849,1.19C69.562,101.016,68.799,100.751,68.17,100.239z M71.896,98.614
					c0.381-0.494,0.58-1.108,0.58-1.819c0-0.712-0.199-1.325-0.58-1.822c-0.38-0.497-0.911-0.745-1.589-0.745
					c-1.393,0-2.17,1.11-2.17,2.567s0.777,2.565,2.17,2.565C70.984,99.359,71.516,99.111,71.896,98.614z"/>
				<path fill="#FFFFFF" d="M76.484,89.423c0.465-0.463,1.227-0.463,1.69,0c0.463,0.448,0.463,1.208,0,1.674
					c-0.464,0.463-1.226,0.463-1.69,0C76.021,90.632,76.021,89.871,76.484,89.423z M76.369,100.834v-8.114h1.889v8.114H76.369z"/>
				<path fill="#FFFFFF" d="M87.664,97.34h-5.548c0.083,1.209,0.927,1.97,2.137,1.97c0.877,0,1.572-0.38,2.087-1.142l1.273,1.191
					c-0.86,1.11-1.986,1.656-3.36,1.656c-1.21,0-2.202-0.38-2.948-1.16c-0.745-0.776-1.126-1.788-1.126-3.031
					c0-1.208,0.349-2.233,1.026-3.062c0.696-0.828,1.623-1.243,2.767-1.243c2.633,0,3.709,2.102,3.709,4.157L87.664,97.34z
					 M82.216,95.834h3.462c-0.019-0.846-0.548-1.592-1.69-1.592C82.994,94.242,82.398,94.954,82.216,95.834z"/>
				<path fill="#FFFFFF" d="M89.604,100.834V89.227h1.887v11.608H89.604z"/>
			</g>
		</g>
		</g>
</svg>