<svg id="Ebene_1" data-name="Ebene 1" xmlns="http://www.w3.org/2000/svg" viewBox="0 0 470 390"><defs><style>.cls-1{fill:#003b79;}</style></defs><title>mdw_Logo_blau_</title><path class="cls-1" d="M211.51,203.93v12c0,1.81.41,4.11,4,4.11a5,5,0,0,0,4.37-2.08,6,6,0,0,0,.78-3.48V203.93h3.59v15.12c0,.37.08,2.44.12,3.48H220.7l-.07-3.19c-.67,1.3-1.93,3.38-5.93,3.38-4.6,0-6.74-2.64-6.74-6.3V203.93Zm17.16,2.15,0-2.15h3.49l0,3c.4-.78,1.74-3.37,6-3.37,1.67,0,6.75.63,6.75,6.33v12.64h-3.56V210.71a4.21,4.21,0,0,0-1-3.19,4.78,4.78,0,0,0-3.3-1.26c-2.52,0-4.85,1.82-4.85,5.56v10.71h-3.49Zm20-10.23h4.18v3.81h-4.18Zm.37,8.08h3.48v18.6H249Zm6.71,0h3.89l5.93,14.75,5.78-14.75h3.85L267,222.53h-3.52ZM280,213.86c-.07,3.85,1.52,6.71,5.34,6.71a4,4,0,0,0,4.37-3.86h3.49a6.32,6.32,0,0,1-1.6,3.89c-.81.93-2.67,2.49-6.41,2.49-5.85,0-8.63-3.64-8.63-9.53,0-3.67.74-6.71,3.66-8.74a9,9,0,0,1,5.08-1.38c8.34,0,8.16,7.38,8.08,10.42Zm9.82-2.45c0-1.78-.29-5.48-4.59-5.48-2.26,0-5,1.37-5.08,5.48Zm7.38-3.7c0-1.26-.08-2.56-.19-3.78h3.52l.08,3.59a5,5,0,0,1,4.44-3.67,10.77,10.77,0,0,1,2.41-.07v3.41a2.69,2.69,0,0,0-.66-.15,7.26,7.26,0,0,0-1,0c-4.12,0-5.08,2.45-5.08,5.64v9.89h-3.52Zm16.23,9.3c0,1.41.7,3.37,4.08,3.37a3.8,3.8,0,0,0,3.26-1.19,2.9,2.9,0,0,0,.59-1.74c0-1.81-1.3-2.15-4.08-2.78-3.89-.89-7.15-1.66-7.15-5.56,0-3.4,3-5.63,7.27-5.63,2.33,0,5.59.67,6.7,2.89a5.83,5.83,0,0,1,.49,2.71H321c.11-2.82-2.34-3-3.6-3-.52,0-3.78,0-3.78,2.67,0,1.7,1.67,2.11,2.63,2.37,5.15,1.22,6.27,1.52,7.38,2.56a4.6,4.6,0,0,1,1.41,3.44,5.64,5.64,0,0,1-2.52,4.71,10.49,10.49,0,0,1-5.53,1.26c-3.78,0-7.3-1.56-7.26-6Zm14.71-21.16h4.19v3.81H328.1Zm.37,8.08H332v18.6h-3.49Zm7.23-.08H339V200l3.44-1.11v5h4.16v2.56h-4.16v11.15c0,.93,0,2.49,2.49,2.49a7.35,7.35,0,0,0,1.67-.19v2.71a17.35,17.35,0,0,1-2.89.22c-3.19,0-4.71-.93-4.71-4V206.41h-3.3Zm26.35,18.68a10,10,0,0,1-.33-2.78,6,6,0,0,1-5.75,3.37c-4.26,0-6.56-2.41-6.56-5.48a6.13,6.13,0,0,1,3.26-5.45c2-1.11,5-1.22,6.45-1.22.89,0,1.45,0,2.52.11,0-2.3,0-3.3-.67-4.11a4.24,4.24,0,0,0-3.22-1.23c-3.52,0-3.71,2.41-3.74,3.15h-3.49a6,6,0,0,1,1.3-3.52c1.41-1.55,4-2,6-2,2.71,0,5.6.85,6.6,2.74a5.52,5.52,0,0,1,.63,2.86l-.15,8.89a43.31,43.31,0,0,0,.3,4.67Zm-9.56-26.65h3.41v3.78h-3.41Zm7.15,17.5c-1.41,0-6.71,0-6.71,3.78,0,1.18.74,3.22,3.86,3.22a4.44,4.44,0,0,0,4-2c.78-1.26.82-2.3.89-4.89A14.47,14.47,0,0,0,359.64,213.38Zm-.15-17.5h3.45v3.78h-3.45Zm8.23,8H371V200l3.44-1.11v5h4.15v2.56h-4.15v11.15c0,.93,0,2.49,2.49,2.49a7.17,7.17,0,0,0,1.66-.19v2.71a17.35,17.35,0,0,1-2.89.22c-3.18,0-4.7-.93-4.7-4V206.41h-3.3ZM217.63,235c-.59,0-1.34-.08-2-.08-2.82,0-2.82,1.41-2.82,2.71v2.92h4.34v2.53h-4.34v16.08h-3.44V243.09h-3.67v-2.53h3.67v-2.11c0-2.55.14-3.48.77-4.44.78-1.19,2.27-2,4.67-2a20.45,20.45,0,0,1,2.86.26Zm6.22,5.55v12c0,1.81.41,4.11,4,4.11a5,5,0,0,0,4.37-2.08,6,6,0,0,0,.78-3.48V240.56h3.6v15.13c0,.37.07,2.44.11,3.48H233L233,256c-.67,1.3-1.93,3.37-5.93,3.37-4.59,0-6.74-2.63-6.74-6.3V240.56Zm-.37-8h3.41v3.78h-3.41Zm7,0h3.44v3.78h-3.44Zm10.41,11.82c0-1.25-.07-2.55-.18-3.78h3.52l.07,3.6a5,5,0,0,1,4.45-3.67,10.76,10.76,0,0,1,2.41-.07v3.41a2.89,2.89,0,0,0-.67-.15,7.18,7.18,0,0,0-1,0c-4.11,0-5.08,2.45-5.08,5.63v9.9H240.9Zm23-1.29-.08-2.49h3.52v2.71a6.33,6.33,0,0,1,5.89-3.19c4.12,0,5.42,2.12,6.08,3.49a6.68,6.68,0,0,1,6.27-3.49c2.66,0,6.81,1.11,6.81,6.6v12.49h-3.52V247.24a4.53,4.53,0,0,0-.63-2.82,4.18,4.18,0,0,0-3.55-1.63,4.77,4.77,0,0,0-4,2c-.81,1.15-.81,3.19-.81,4v10.42H276.4V246.86a3.77,3.77,0,0,0-4.07-4.07,5,5,0,0,0-4.08,2,6.47,6.47,0,0,0-.81,3.78v10.56h-3.52Zm35.79-2.49v12c0,1.81.41,4.11,4,4.11a5,5,0,0,0,4.37-2.08,6,6,0,0,0,.78-3.48V240.56h3.6v15.13c0,.37.07,2.44.11,3.48h-3.63l-.08-3.19c-.67,1.3-1.93,3.37-5.93,3.37-4.59,0-6.74-2.63-6.74-6.3V240.56Zm20,13.09c0,1.41.7,3.37,4.08,3.37a3.8,3.8,0,0,0,3.26-1.19,2.9,2.9,0,0,0,.59-1.74c0-1.81-1.3-2.15-4.08-2.78-3.89-.89-7.15-1.67-7.15-5.56,0-3.41,3-5.63,7.27-5.63,2.33,0,5.59.67,6.7,2.89a5.94,5.94,0,0,1,.48,2.71h-3.55c.11-2.82-2.34-3-3.6-3-.52,0-3.78,0-3.78,2.67,0,1.7,1.67,2.11,2.63,2.37,5.15,1.22,6.27,1.52,7.38,2.55a4.63,4.63,0,0,1,1.41,3.45,5.64,5.64,0,0,1-2.52,4.71,10.47,10.47,0,0,1-5.52,1.26c-3.79,0-7.31-1.56-7.27-6Zm14.71-21.16h4.19v3.81H334.4Zm.37,8.07h3.49v18.61h-3.49Zm7.6-8.33h3.45v15.93l7-7.6h4.56l-7.85,7.9,8.33,10.71h-4.55l-7.45-10v10h-3.45Zm30.8,8.33v12c0,1.81.4,4.11,4,4.11a5,5,0,0,0,4.38-2.08,6,6,0,0,0,.77-3.48V240.56h3.6v15.13c0,.37.07,2.44.11,3.48h-3.63l-.08-3.19c-.66,1.3-1.92,3.37-5.93,3.37-4.59,0-6.74-2.63-6.74-6.3V240.56Zm16.6,2.15,0-2.15h3.49l0,3c.41-.78,1.74-3.38,6-3.38,1.67,0,6.74.63,6.74,6.34v12.64h-3.55V247.35a4.2,4.2,0,0,0-1-3.19,4.8,4.8,0,0,0-3.3-1.26c-2.52,0-4.86,1.82-4.86,5.56v10.71h-3.48Zm33.76-10.26H427V256.2c0,.41.08,2,.15,3h-3.48l-.07-3a5.41,5.41,0,0,1-1.67,2,8.44,8.44,0,0,1-4.6,1.37c-2.48,0-8-1.3-8-9.45,0-7.08,4-10.16,8.41-10.16,4,0,5.34,2.38,5.78,3.16Zm-1.3,12a5,5,0,0,0-4.07-1.89c-5.12,0-5.12,6.19-5.12,7.45,0,3.3.86,7.11,5.12,7.11,5.48,0,5.48-6,5.48-7.48C423.64,246.9,423,245.42,422.23,244.42Zm-201,24.67h3.49v23.75c0,.41.07,2,.14,3h-3.48l-.07-3a5.41,5.41,0,0,1-1.67,2,8.52,8.52,0,0,1-4.6,1.37c-2.48,0-8-1.3-8-9.45,0-7.08,4-10.16,8.41-10.16,4,0,5.34,2.37,5.78,3.15Zm-1.29,12a5.06,5.06,0,0,0-4.08-1.89c-5.12,0-5.12,6.19-5.12,7.45,0,3.3.86,7.11,5.12,7.11,5.48,0,5.48-6,5.48-7.48C221.33,283.54,220.7,282.06,219.93,281.06Zm20.71,14.75a10,10,0,0,1-.33-2.78,6,6,0,0,1-5.75,3.37c-4.26,0-6.56-2.41-6.56-5.48a6.11,6.11,0,0,1,3.27-5.45c2-1.11,5-1.22,6.44-1.22.89,0,1.45,0,2.52.11,0-2.3,0-3.3-.66-4.12a4.31,4.31,0,0,0-3.23-1.22c-3.52,0-3.7,2.41-3.74,3.15h-3.48a5.94,5.94,0,0,1,1.29-3.52c1.41-1.56,4-2,6-2,2.7,0,5.59.85,6.59,2.74a5.41,5.41,0,0,1,.63,2.85l-.14,8.9a42.51,42.51,0,0,0,.29,4.67Zm-2.41-9.16c-1.41,0-6.7,0-6.7,3.78,0,1.19.74,3.23,3.85,3.23a4.49,4.49,0,0,0,4-2c.77-1.26.81-2.3.88-4.89A14.21,14.21,0,0,0,238.23,286.65Zm9.45-5.67c0-1.26-.07-2.55-.18-3.78H251l.07,3.6a5,5,0,0,1,4.45-3.67,10.77,10.77,0,0,1,2.41-.07v3.41a2.45,2.45,0,0,0-.67-.15,7.18,7.18,0,0,0-1,0c-4.11,0-5.08,2.45-5.08,5.63v9.9h-3.52Zm16.05,9.31c0,1.4.7,3.37,4.08,3.37a3.8,3.8,0,0,0,3.26-1.19,2.9,2.9,0,0,0,.59-1.74c0-1.82-1.3-2.15-4.08-2.78-3.89-.89-7.15-1.67-7.15-5.56,0-3.41,3-5.63,7.27-5.63,2.33,0,5.59.67,6.7,2.89a5.94,5.94,0,0,1,.48,2.71h-3.55c.11-2.82-2.34-3-3.6-3-.52,0-3.78,0-3.78,2.66,0,1.71,1.67,2.12,2.63,2.38,5.16,1.22,6.27,1.52,7.38,2.55a4.62,4.62,0,0,1,1.41,3.45,5.65,5.65,0,0,1-2.52,4.71,10.49,10.49,0,0,1-5.53,1.26c-3.78,0-7.3-1.56-7.26-6Zm13.49-13.16h3.3v-3.89l3.44-1.11v5h4.16v2.56H284v11.15c0,.93,0,2.48,2.49,2.48a8.13,8.13,0,0,0,1.67-.18v2.7a16.17,16.17,0,0,1-2.9.23c-3.18,0-4.7-.93-4.7-4V279.69h-3.3Zm16.57,10c-.08,3.85,1.51,6.7,5.33,6.7a4,4,0,0,0,4.37-3.85H307a6.3,6.3,0,0,1-1.59,3.89c-.82.93-2.67,2.48-6.42,2.48-5.85,0-8.63-3.63-8.63-9.52,0-3.67.74-6.71,3.67-8.75a8.93,8.93,0,0,1,5.07-1.37c8.34,0,8.16,7.38,8.08,10.42Zm9.82-2.45c0-1.78-.3-5.49-4.6-5.49-2.26,0-5,1.38-5.08,5.49Zm7.07-15.6h3.49v26.72h-3.49Zm7.53,0h3.48v26.72h-3.48Zm10.3,18.05c-.07,3.85,1.52,6.7,5.34,6.7a4,4,0,0,0,4.37-3.85h3.48a6.3,6.3,0,0,1-1.59,3.89c-.82.93-2.67,2.48-6.41,2.48-5.86,0-8.64-3.63-8.64-9.52,0-3.67.75-6.71,3.67-8.75a9,9,0,0,1,5.08-1.37c8.34,0,8.15,7.38,8.08,10.42Zm9.82-2.45c0-1.78-.3-5.49-4.59-5.49-2.26,0-5,1.38-5.08,5.49Zm7.3-5.34,0-2.15h3.48l0,3c.4-.78,1.74-3.38,6-3.38,1.67,0,6.75.63,6.75,6.34v12.64h-3.56V284a4.2,4.2,0,0,0-1-3.19,4.78,4.78,0,0,0-3.3-1.26c-2.52,0-4.85,1.81-4.85,5.56v10.71h-3.49Zm33.95-10.26h3.48v23.75c0,.41.08,2,.15,3h-3.48l-.08-3a5.22,5.22,0,0,1-1.67,2,8.47,8.47,0,0,1-4.59,1.37c-2.48,0-8-1.3-8-9.45,0-7.08,4-10.16,8.41-10.16,4,0,5.33,2.37,5.78,3.15Zm-1.3,12a5,5,0,0,0-4.08-1.89c-5.11,0-5.11,6.19-5.11,7.45,0,3.3.85,7.11,5.11,7.11,5.49,0,5.49-6,5.49-7.48C379.69,283.54,379.06,282.06,378.28,281.06Zm11.6,6.08c-.07,3.85,1.52,6.7,5.34,6.7a4,4,0,0,0,4.37-3.85h3.48a6.24,6.24,0,0,1-1.59,3.89c-.81.93-2.67,2.48-6.41,2.48-5.86,0-8.64-3.63-8.64-9.52,0-3.67.75-6.71,3.67-8.75a9,9,0,0,1,5.08-1.37c8.34,0,8.15,7.38,8.08,10.42Zm9.82-2.45c0-1.78-.29-5.49-4.59-5.49-2.26,0-5,1.38-5.08,5.49ZM208.07,305.5h3.44v15.94l7-7.6H223l-7.86,7.9,8.34,10.71H219l-7.45-10.05v10.05h-3.44Zm21.23,8.34v12c0,1.82.41,4.12,4,4.12a5,5,0,0,0,4.37-2.08,6,6,0,0,0,.78-3.48V313.84H242V329c0,.37.08,2.45.11,3.49h-3.63l-.07-3.19c-.67,1.3-1.93,3.37-5.93,3.37-4.6,0-6.75-2.63-6.75-6.3V313.84Zm17,2.15,0-2.15h3.48l0,3c.41-.77,1.74-3.37,6-3.37,1.66,0,6.74.63,6.74,6.34v12.64h-3.56V320.62a4.19,4.19,0,0,0-1-3.18,4.74,4.74,0,0,0-3.3-1.26c-2.52,0-4.85,1.81-4.85,5.56v10.71h-3.49Zm23.06,10.93c0,1.41.7,3.38,4.07,3.38a3.79,3.79,0,0,0,3.26-1.19,2.91,2.91,0,0,0,.6-1.74c0-1.82-1.3-2.15-4.08-2.78-3.89-.89-7.15-1.67-7.15-5.56,0-3.41,3-5.63,7.26-5.63,2.34,0,5.6.67,6.71,2.89a5.92,5.92,0,0,1,.48,2.7h-3.56c.11-2.81-2.33-3-3.59-3-.52,0-3.78,0-3.78,2.67,0,1.71,1.67,2.12,2.63,2.38,5.15,1.22,6.26,1.51,7.37,2.55A4.62,4.62,0,0,1,281,327a5.66,5.66,0,0,1-2.52,4.71,10.45,10.45,0,0,1-5.52,1.26c-3.78,0-7.3-1.56-7.26-6.05ZM283,313.77h3.3v-3.89l3.45-1.12v5h4.15v2.56h-4.15v11.15c0,.93,0,2.48,2.48,2.48a8.13,8.13,0,0,0,1.67-.18v2.7a17.13,17.13,0,0,1-2.89.23c-3.19,0-4.71-.93-4.71-4V316.33H283Zm25,.07,4.48,14.83,4.71-14.83h4.56L326,328.52l4.67-14.68h3.6l-6.56,18.61h-4l-4.37-15.31-4.85,15.31h-4.12l-6.15-18.61Zm29.53-8.08h4.19v3.82h-4.19Zm.37,8.08h3.49v18.61h-3.49Zm10.16,9.93c-.08,3.86,1.52,6.71,5.33,6.71a4,4,0,0,0,4.38-3.85h3.48a6.34,6.34,0,0,1-1.59,3.89c-.82.93-2.67,2.48-6.41,2.48-5.86,0-8.64-3.63-8.64-9.52,0-3.67.74-6.71,3.67-8.75a8.94,8.94,0,0,1,5.08-1.37c8.34,0,8.15,7.38,8.08,10.41Zm9.82-2.44c0-1.78-.3-5.49-4.6-5.49-2.26,0-5,1.37-5.07,5.49Zm6.93-5.34,0-2.15h3.49l0,3c.41-.77,1.74-3.37,6-3.37,1.67,0,6.74.63,6.74,6.34v12.64h-3.55V320.62a4.19,4.19,0,0,0-1-3.18,4.76,4.76,0,0,0-3.3-1.26c-2.52,0-4.86,1.81-4.86,5.56v10.71h-3.48ZM210,86.45l12.61,49.91c.63-2.89,1.27-5.59,2.08-8.46.64-2.24,1.26-4.46,2.06-6.69l11-34.76h22l13.38,48.14c1.12-4.46,2.4-8.93,3.83-13.38l11.17-34.76h25.51L285,172.71H260.42l-13.08-45.29-15.78,45.29H208l-23.9-86.26ZM150.79,171.2h-28.1a39.44,39.44,0,0,1,28.11-11.89c-3.54-2.38-10.14-6.21-21.17-6.21a40,40,0,0,0-32.42,15.79A46.4,46.4,0,0,0,87.84,197c0,18.43,7.61,27.31,12.38,31.75,10,9.22,21,12.91,30.61,12.91a55.75,55.75,0,0,0,20-3.67,39.68,39.68,0,0,1-37.74-28h37.74v3.58h0c-4.38,0-7.92,2.48-7.92,5.53s3.54,5.53,7.92,5.53h0V238a43.31,43.31,0,0,0,12.67-7.7c9.92-8.72,13.13-21.18,13.13-34.83V170.89l0-98c0-8.47-.31-12.46-1.28-16.45A28.11,28.11,0,0,0,157.68,36a35.07,35.07,0,0,0-12-1.91c-6.71,0-12.62,1.12-18.37,4.47a31.57,31.57,0,0,0-10.55,9.28,36.87,36.87,0,0,0-5.6-6.88A26.24,26.24,0,0,0,92.5,34.2c-10.71,0-17.26,4.31-20.29,7.51a25.81,25.81,0,0,0-3.68,4.63V36H47.32v86.28H71.4v-47c.17-3.84.32-5.76,1-7.52a13.43,13.43,0,0,1,13.1-9.1c8.79,0,11.51,5.58,12.31,8.94a22.55,22.55,0,0,1,.63,6.55v48.09H124V75.59c0-4.65.16-8.8,2.87-12.63,3.68-5.11,9.59-5.59,11.49-5.59a14.42,14.42,0,0,1,7.2,1.91c5,3.36,5.28,8.31,5.28,13.74Zm-30.73,3h30.81v5.93h-34.7A39.09,39.09,0,0,1,120.06,174.15ZM114.73,183h36.14v6H144.3c-.85-2.42-4-4.21-7.69-4.21s-6.85,1.79-7.7,4.21H112.68A40.38,40.38,0,0,1,114.73,183ZM112,192h17c1,2.25,4,3.89,7.58,3.89s6.57-1.64,7.57-3.89h6.69v6H111.46A39.35,39.35,0,0,1,112,192Zm.34,15.05a39.45,39.45,0,0,1-.82-6.1h39.31V207Z"/></svg>